<?xml version="1.0" standalone="no"?>
<!DOCTYPE svg PUBLIC "-//W3C//DTD SVG 20010904//EN"
 "http://www.w3.org/TR/2001/REC-SVG-20010904/DTD/svg10.dtd">
<svg version="1.0" xmlns="http://www.w3.org/2000/svg"
 width="706.000000pt" height="998.000000pt" viewBox="0 0 706.000000 998.000000"
 preserveAspectRatio="xMidYMid meet">

<g transform="translate(0.000000,998.000000) scale(0.100000,-0.100000)"
fill="#000000" stroke="none">
<path d="M1945 9807 c-62 -35 -85 -77 -85 -156 0 -42 7 -80 19 -106 20 -45 82
-105 153 -150 27 -17 48 -33 48 -37 0 -4 -23 -60 -51 -125 -106 -243 -125
-331 -93 -436 23 -77 69 -125 144 -151 l55 -20 -35 -14 c-208 -84 -227 -95
-286 -172 l-42 -55 -178 -1 c-259 -2 -235 8 -689 -283 -104 -67 -214 -142
-244 -167 -62 -51 -142 -147 -171 -205 -24 -46 -70 -186 -70 -213 0 -35 16 -3
35 68 40 153 127 275 270 381 78 58 183 120 191 113 2 -3 -32 -45 -76 -94
-113 -124 -225 -295 -322 -492 l-83 -167 -3 50 c-6 89 -19 69 -26 -39 -6 -89
-30 -232 -61 -361 -6 -22 -5 -27 4 -19 6 5 22 63 35 128 13 64 26 119 29 122
2 3 12 -24 22 -60 22 -83 17 -313 -10 -387 -18 -51 -55 -95 -55 -66 0 9 -4 19
-10 22 -6 4 -10 -5 -10 -19 0 -37 29 -34 67 7 24 24 34 47 43 95 15 88 13 273
-4 362 -16 80 -13 111 19 194 22 57 27 54 107 -69 65 -100 88 -163 88 -242 0
-74 -20 -118 -61 -132 -31 -11 -34 -10 -76 35 -47 51 -57 47 -20 -7 47 -70
111 -74 154 -10 61 91 31 221 -95 415 -49 75 -62 109 -44 120 4 2 21 -19 36
-47 68 -122 182 -238 290 -295 44 -23 62 -27 131 -25 200 3 325 123 325 311 0
168 -74 290 -214 356 -53 25 -166 54 -291 73 -57 9 -63 29 -7 26 333 -17 334
-17 390 7 64 28 129 97 138 149 6 28 2 46 -19 83 -15 27 -27 50 -27 52 0 3 15
9 33 15 52 17 87 62 106 131 9 34 21 62 26 63 6 1 14 -15 19 -35 14 -57 -6
-110 -59 -153 l-43 -36 15 -37 c19 -45 13 -130 -11 -166 -9 -14 -48 -50 -86
-78 l-69 -52 54 -48 c92 -83 133 -212 122 -383 -12 -194 -103 -298 -296 -336
-74 -14 -163 -2 -268 35 -36 14 -70 23 -75 20 -4 -3 -8 -28 -8 -55 0 -117 -42
-186 -128 -213 -39 -11 -42 -14 -19 -15 90 -3 158 77 173 204 5 39 11 55 19
51 7 -2 60 -38 117 -80 56 -41 144 -100 193 -131 140 -88 485 -257 640 -314
255 -94 336 -132 380 -181 19 -21 19 -22 -4 -133 -30 -151 -27 -144 -66 -151
-19 -4 -145 -7 -279 -7 -262 0 -325 8 -474 58 -240 80 -394 185 -547 373 -65
80 -159 219 -191 283 -13 26 -29 47 -34 47 -5 0 -14 -17 -19 -37 -31 -121 -32
-124 -64 -144 -18 -11 -40 -18 -49 -15 -23 5 -23 -5 6 -94 61 -192 181 -400
308 -535 105 -112 284 -217 489 -286 196 -65 447 -26 770 121 70 32 152 65
182 74 34 10 71 31 101 57 57 50 93 59 193 48 93 -10 130 -1 158 41 11 17 28
33 37 36 10 3 55 -11 100 -32 77 -34 279 -133 286 -139 2 -2 -4 -18 -13 -35
-60 -117 -81 -355 -50 -585 8 -60 15 -157 15 -214 l0 -104 59 -58 c67 -64 78
-83 145 -251 26 -64 69 -158 96 -210 61 -117 81 -188 69 -251 -4 -26 -46 -129
-92 -229 -95 -206 -126 -289 -152 -399 -21 -91 -14 -194 15 -232 21 -27 74
-40 116 -28 26 7 26 7 -30 50 -31 24 -67 57 -80 72 l-24 28 19 88 c11 48 23
101 27 117 l8 29 32 -50 c69 -107 118 -137 296 -183 94 -24 118 -20 246 45
108 55 313 179 317 192 2 6 -58 37 -134 69 -132 56 -377 189 -500 272 -41 27
-57 44 -56 58 2 10 6 60 9 111 l7 92 36 -28 c107 -84 196 -96 356 -47 168 52
225 86 350 209 87 87 134 146 212 262 55 83 108 164 117 182 10 21 36 43 74
63 32 17 80 48 106 70 l47 39 47 -23 c173 -82 486 -248 513 -272 14 -13 13
-27 -7 -156 -13 -79 -33 -186 -45 -238 -29 -129 -155 -515 -185 -566 -25 -44
-119 -113 -133 -98 -4 5 -13 27 -19 50 -16 54 -66 122 -96 130 -28 7 -81 -21
-296 -154 -132 -82 -136 -83 -184 -77 -27 3 -72 15 -100 26 -28 10 -56 19 -61
19 -12 0 -373 -214 -389 -230 -7 -7 -6 -10 2 -10 20 0 393 60 475 76 43 9 81
14 83 11 15 -15 -399 -170 -564 -211 -122 -30 -166 -35 -378 -42 -189 -5 -216
0 -242 46 -9 16 -20 30 -23 30 -11 0 -19 -89 -34 -366 -15 -288 -18 -305 -101
-486 -127 -275 -260 -466 -468 -672 -192 -188 -324 -287 -459 -341 -262 -107
-480 -55 -662 157 -78 91 -132 212 -177 398 -17 72 -21 128 -25 367 -8 431 14
628 89 815 69 173 55 273 -57 396 -70 78 -129 105 -240 110 -120 5 -192 -9
-300 -62 -113 -55 -166 -101 -202 -174 -25 -51 -28 -67 -28 -162 0 -102 1
-106 32 -152 37 -53 116 -98 172 -98 64 0 145 65 157 127 4 20 -1 38 -18 62
-34 50 -47 50 -45 -1 1 -24 -4 -57 -12 -75 -38 -91 -166 -35 -201 88 -24 83
45 186 140 209 113 27 216 -4 293 -89 94 -104 105 -175 127 -811 21 -604 34
-727 90 -870 56 -141 100 -208 206 -311 105 -100 140 -125 209 -149 81 -28 80
-25 -5 21 -244 133 -381 327 -434 620 -30 165 -54 546 -57 923 l-2 178 46 46
c26 25 48 44 51 42 2 -3 -5 -88 -16 -190 -28 -252 -30 -618 -5 -780 55 -354
213 -586 462 -679 236 -89 519 20 841 323 225 212 417 489 543 786 18 41 25
50 29 35 13 -58 -59 -269 -159 -461 -43 -84 -92 -186 -109 -229 -53 -134 -63
-146 -200 -264 -353 -304 -504 -376 -799 -382 -118 -2 -111 -19 8 -19 138 0
253 26 396 90 83 38 151 85 338 239 98 80 184 148 189 150 7 2 8 -5 3 -20 -12
-38 -17 -306 -7 -389 6 -41 31 -167 57 -280 45 -199 49 -242 30 -310 -6 -23
-5 -24 8 -7 18 21 31 22 48 0 20 -24 89 -53 124 -52 25 1 22 3 -18 14 -92 25
-120 58 -131 156 -3 31 -21 121 -40 200 -47 194 -58 286 -57 472 1 175 11 237
65 376 35 89 120 267 159 330 11 19 31 62 43 95 12 33 26 62 31 63 6 2 13 -31
17 -76 7 -87 44 -228 77 -294 33 -65 93 -156 107 -162 14 -5 -11 50 -28 60
-16 10 -64 112 -95 200 -26 74 -28 94 -33 278 -3 139 -1 197 6 197 6 0 39 -18
72 -39 76 -49 182 -102 281 -140 115 -44 353 -87 509 -92 80 -3 100 -8 100
-24 0 -18 -80 -217 -117 -290 -29 -57 -42 -95 -128 -370 -51 -161 -151 -354
-315 -607 -74 -114 -147 -227 -162 -252 -33 -56 -60 -73 -139 -91 -43 -9 -54
-14 -33 -14 42 -1 116 22 152 48 16 11 32 18 36 14 3 -3 6 7 6 23 0 21 41 89
141 239 214 320 285 469 405 861 35 117 73 188 91 171 4 -5 8 -122 9 -260 1
-284 6 -317 70 -532 36 -120 44 -160 40 -200 -2 -27 -2 -117 2 -199 8 -172 9
-174 114 -201 32 -8 108 -40 169 -70 l111 -56 128 2 c76 1 144 8 167 15 21 8
48 14 60 14 23 0 65 48 77 86 9 31 -27 59 -145 110 -126 54 -170 84 -195 129
-18 34 -18 34 10 89 15 30 25 63 22 73 -7 22 32 109 77 172 38 53 72 128 86
193 6 25 13 221 16 434 6 403 10 448 50 574 24 72 56 264 71 418 3 39 9 72 13
71 3 0 26 -25 51 -54 25 -30 48 -55 51 -55 14 0 165 181 201 240 40 67 98 217
98 255 0 20 -7 26 -42 35 -138 36 -195 53 -250 75 -34 14 -67 25 -75 25 -7 0
-13 6 -13 13 0 20 56 206 145 481 82 253 99 301 113 310 5 3 26 -34 46 -82 52
-120 112 -214 203 -317 43 -48 100 -115 126 -149 48 -61 137 -203 137 -219 0
-5 -13 -6 -28 -2 -34 7 -82 -26 -82 -57 0 -28 75 -102 95 -94 21 8 23 -1 33
-121 5 -56 15 -109 22 -118 20 -24 55 -18 99 18 22 17 55 43 71 56 38 28 77
105 90 171 16 85 -25 497 -66 661 -40 164 -139 425 -183 488 -22 31 -63 111
-57 111 2 0 60 -30 129 -67 69 -38 242 -126 385 -198 l260 -130 12 -54 c17
-76 34 -112 70 -146 28 -27 38 -30 93 -30 96 1 176 53 211 137 23 53 20 97
-10 157 -21 42 -36 57 -68 72 -47 21 -164 26 -214 8 -25 -9 -37 -7 -74 12 -77
39 -311 170 -408 229 -132 80 -523 311 -592 349 -31 18 -61 37 -66 44 -5 7
-49 84 -97 172 -101 184 -154 270 -162 262 -3 -4 6 -34 20 -69 31 -79 74 -245
65 -254 -11 -11 -285 147 -302 174 -3 5 -1 33 3 63 12 71 -4 116 -49 147 -19
12 -40 36 -47 52 -13 32 -66 70 -98 70 -12 0 -38 18 -60 40 -21 21 -51 42 -67
45 -39 9 -109 -26 -151 -76 -38 -43 -58 -48 -92 -20 -22 17 -23 20 -9 39 14
20 12 25 -20 68 -20 26 -36 53 -36 61 0 7 12 32 27 54 l27 41 43 -48 43 -49
-1 50 c0 42 -2 46 -10 26 -8 -20 -11 -22 -27 -10 -28 22 -32 32 -32 74 l0 40
-19 -41 c-23 -50 -75 -110 -112 -130 -39 -20 -37 -36 3 -22 30 10 33 9 59 -22
49 -59 46 -110 -6 -90 -11 4 -49 24 -84 43 -56 31 -61 36 -45 46 17 9 16 10
-10 11 -34 0 -83 24 -331 165 -446 252 -697 400 -705 415 -4 8 -22 65 -40 125
-17 61 -45 142 -62 180 -47 110 -137 360 -140 390 -3 25 1 28 60 46 87 27 113
66 115 172 1 61 -2 80 -17 96 -20 22 -70 28 -96 11 -13 -9 -11 -13 9 -28 42
-34 24 -146 -27 -159 -33 -8 -51 5 -76 53 -32 60 -29 266 7 484 40 247 47 325
48 482 0 146 -18 273 -47 329 -15 30 -113 134 -158 167 -16 12 -26 25 -23 28
3 3 42 1 87 -5 138 -18 286 -75 549 -209 230 -117 400 -192 436 -192 25 0 -31
96 -146 250 -54 73 -97 135 -95 137 2 3 58 -21 123 -52 258 -125 495 -206 728
-251 209 -40 197 -34 259 -123 93 -131 160 -177 277 -190 38 -4 71 -10 75 -13
18 -19 47 -308 30 -308 -4 0 -22 11 -39 24 -18 13 -56 36 -85 51 -49 26 -58
27 -160 23 -161 -7 -248 -47 -382 -178 -111 -108 -174 -226 -206 -383 -28
-137 -5 -221 65 -239 17 -5 34 -15 37 -23 7 -17 -25 -71 -62 -105 -25 -24 -27
-24 -38 -6 -6 10 -31 45 -55 78 -47 64 -71 73 -27 10 37 -54 32 -62 -11 -21
-21 20 -66 57 -100 83 -35 26 -63 51 -63 56 0 5 12 18 26 29 l27 21 -26 0
c-17 0 -28 -7 -32 -20 -8 -26 -32 -25 -120 1 -101 29 -266 29 -355 0 -116 -40
-176 -91 -224 -191 -29 -61 -31 -73 -34 -206 -5 -157 7 -222 58 -329 108 -226
460 -376 882 -377 110 0 209 7 270 18 24 5 28 2 38 -35 6 -22 15 -43 20 -46 6
-3 10 -18 10 -32 0 -18 4 -24 15 -20 8 4 36 -9 62 -28 26 -19 109 -73 183
-121 216 -139 280 -183 369 -256 46 -38 87 -66 90 -62 16 16 -253 218 -436
327 -57 34 -134 84 -171 112 -65 50 -136 137 -129 159 2 6 50 35 107 64 99 51
106 54 158 47 38 -5 52 -3 48 4 -4 6 -16 11 -26 11 -28 0 -34 19 -14 41 25 27
32 24 45 -20 15 -50 30 -56 79 -31 49 25 85 72 101 133 13 48 8 73 -47 217 -7
19 -13 61 -13 92 -1 38 -11 86 -31 140 -21 56 -29 93 -25 113 14 69 36 135 46
135 6 0 34 -22 62 -49 78 -74 127 -95 222 -99 69 -3 86 0 125 20 99 53 137
164 87 258 -32 62 -46 62 -34 1 17 -78 -16 -114 -117 -127 -82 -12 -186 40
-186 92 0 70 51 150 221 349 28 33 65 89 83 125 29 61 31 72 30 170 0 82 -7
135 -33 242 -18 76 -31 144 -29 153 4 19 173 99 255 120 31 8 84 15 116 15
l60 0 81 -84 c44 -47 94 -90 109 -95 42 -16 88 -13 123 8 30 18 124 121 124
136 0 4 -24 5 -54 1 -68 -8 -100 4 -121 44 -9 17 -33 97 -55 179 -49 186 -58
208 -109 258 -99 99 -225 109 -336 27 -47 -35 -150 -83 -209 -98 -98 -26 -133
-1 -206 144 -187 370 -656 611 -1145 586 -152 -7 -253 -24 -433 -71 l-143 -38
-49 54 -49 54 -1 142 0 143 -36 39 c-76 85 -276 108 -512 61 -95 -19 -270 -95
-375 -162 -44 -28 -52 -30 -107 -24 -136 16 -193 50 -220 131 -16 50 -6 96 30
130 51 49 33 61 -35 22z m165 -1288 c0 -6 -11 -25 -24 -42 -14 -18 -37 -60
-52 -94 -29 -69 -38 -73 -91 -45 l-33 17 22 30 c11 17 41 46 65 65 24 19 56
45 71 57 30 25 42 28 42 12z m-395 -158 c31 -7 31 -7 24 -80 -4 -31 0 -37 36
-58 61 -34 71 -31 95 34 12 32 26 61 32 64 11 7 66 -7 81 -21 7 -6 -16 -237
-25 -245 -2 -2 -43 12 -90 31 -99 39 -190 59 -325 69 -51 4 -93 8 -93 10 0 1
7 19 15 39 8 19 16 65 17 101 l2 65 101 -1 c55 -1 114 -4 130 -8z m-325 -57
c0 -59 -12 -79 -63 -106 -31 -16 -66 -23 -129 -26 -129 -7 -134 -1 -52 59 72
53 124 82 183 104 57 21 61 20 61 -31z m-137 -169 c8 -4 22 -16 30 -28 54 -84
1 -184 -115 -218 -37 -11 -280 -13 -333 -3 -19 3 -35 11 -35 18 0 6 52 64 114
129 l114 119 104 -6 c57 -3 112 -8 121 -11z m386 -11 c95 -15 262 -65 295 -89
16 -12 16 -15 1 -38 -19 -30 -62 -47 -119 -47 -23 0 -61 -5 -86 -11 -85 -19
-87 -45 -7 -79 72 -31 184 -25 250 13 25 15 48 27 50 27 3 0 8 -44 11 -97 17
-250 54 -431 111 -546 37 -76 40 -77 -86 33 -159 140 -377 270 -586 350 -79
31 -146 78 -190 137 -25 33 -26 36 -9 45 70 39 146 148 146 208 0 14 -9 45
-20 69 -11 24 -20 44 -20 46 0 6 174 -8 259 -21z m-675 -334 c145 -37 242
-108 299 -221 24 -48 27 -65 27 -152 0 -71 -5 -107 -16 -130 -32 -62 -75 -106
-132 -134 -51 -25 -68 -28 -157 -28 -83 0 -107 4 -141 22 -59 32 -137 105
-208 197 -75 96 -86 116 -86 152 0 42 106 229 169 297 25 28 28 29 99 23 39
-4 105 -15 146 -26z m3811 -124 c89 -38 142 -124 154 -250 9 -93 0 -139 -45
-239 -20 -45 -51 -116 -70 -157 -18 -41 -40 -102 -49 -134 -8 -33 -19 -64 -24
-69 -6 -6 -29 2 -60 21 -119 74 -315 82 -459 21 l-47 -20 22 23 c29 30 66 115
59 134 -3 8 -19 14 -41 14 -25 0 -44 8 -60 25 -21 20 -25 33 -25 88 0 73 29
196 65 274 59 130 167 257 237 281 53 18 294 9 343 -12z m-3275 -56 c267 -106
531 -295 732 -523 37 -42 68 -82 68 -87 0 -5 -47 -32 -103 -59 -125 -60 -187
-115 -210 -187 -22 -69 -31 -181 -18 -229 6 -21 9 -40 7 -42 -12 -13 -389 132
-541 207 -177 88 -542 306 -531 317 3 3 45 5 93 4 106 -2 177 17 251 66 65 43
114 106 143 181 27 70 29 204 5 305 -9 38 -14 73 -11 77 6 10 36 2 115 -30z
m891 -181 c50 -17 132 -83 177 -142 73 -98 192 -309 192 -341 0 -52 -13 -62
-47 -36 l-30 22 -43 -22 c-48 -25 -71 -22 -138 17 -104 61 -212 201 -212 274
0 30 7 43 35 68 42 37 57 38 115 9 l45 -23 0 -65 c1 -73 22 -128 63 -160 25
-21 52 -26 52 -12 0 5 -12 19 -26 33 -34 32 -54 71 -54 108 0 59 28 42 86 -49
38 -61 45 -28 7 37 -55 96 -165 182 -231 183 -12 0 -40 -9 -61 -20 l-39 -19 5
42 c8 62 20 86 45 97 13 5 23 9 24 9 1 1 16 -4 35 -10z m1314 -375 c33 -8 106
-38 163 -66 84 -43 116 -67 173 -125 71 -75 90 -83 124 -59 56 38 218 66 340
59 86 -5 151 -35 218 -99 l49 -47 -4 -152 -3 -152 -38 -75 c-93 -183 -265
-281 -542 -309 -272 -27 -631 47 -809 168 -59 40 -128 115 -160 172 -80 147
-90 425 -20 547 77 135 284 191 509 138z m-972 -185 c97 -64 137 -137 146
-262 4 -49 3 -91 -1 -93 -4 -3 -30 8 -57 23 l-50 28 6 55 c8 80 -9 129 -64
183 -25 25 -50 44 -54 41 -4 -2 -28 -32 -53 -65 -39 -51 -46 -68 -46 -105 0
-53 20 -96 65 -144 31 -33 34 -40 36 -110 l2 -75 -34 3 c-56 6 -72 19 -65 55
l6 30 -21 -19 c-21 -19 -21 -19 -49 14 -34 41 -50 94 -50 167 0 88 18 133 75
191 56 56 132 114 150 114 6 0 32 -14 58 -31z m-2076 -288 c191 -266 418 -424
719 -500 118 -30 305 -44 494 -38 91 3 172 8 181 12 14 5 19 -4 27 -52 9 -49
8 -61 -6 -77 -24 -26 -199 -109 -319 -150 -273 -94 -455 -88 -703 23 -150 66
-253 132 -330 211 -92 93 -216 283 -260 400 -20 52 -42 105 -48 117 -22 40
-14 63 37 109 31 28 54 59 61 82 6 20 14 43 16 51 3 9 21 -14 45 -54 22 -38
61 -98 86 -134z m2161 -61 c46 -33 52 -58 21 -86 -17 -15 -23 -16 -40 -6 -17
11 -19 9 -19 -17 0 -34 -20 -58 -56 -67 -31 -8 -31 -8 -34 41 -5 78 0 113 21
139 27 34 56 33 107 -4z m2042 -148 c13 -47 13 -92 0 -92 -5 0 -25 14 -45 31
-32 28 -35 35 -29 68 4 20 11 45 17 55 9 19 10 19 28 -3 10 -12 23 -39 29 -59z
m-2570 -32 c7 -13 8 -64 4 -152 l-7 -132 -46 -49 c-48 -51 -95 -82 -111 -72
-26 16 -31 86 -15 199 19 139 40 204 69 216 41 17 94 12 106 -10z m2529 -57
c45 -31 48 -41 26 -84 -19 -35 -28 -31 -66 29 -51 81 -33 105 40 55z m-36 -97
c20 -28 20 -29 2 -42 -25 -18 -31 -18 -55 6 -19 19 -28 79 -13 93 8 8 38 -17
66 -57z m-1537 -30 c310 -178 967 -553 1049 -599 50 -28 92 -52 94 -53 6 -5
-103 -204 -112 -204 -5 0 -113 54 -240 120 -964 498 -1151 596 -1155 608 -2 7
6 12 21 12 38 0 105 56 150 126 22 35 46 64 52 64 7 0 70 -33 141 -74z m-916
-3 c6 -16 15 -38 22 -50 21 -43 -19 -76 -42 -34 -13 25 -13 111 0 111 6 0 15
-12 20 -27z m351 -19 c12 -14 11 -16 -5 -13 -11 2 -21 10 -24 17 -5 17 13 15
29 -4z m564 -329 c263 -130 474 -240 487 -253 16 -16 -161 -6 -228 14 -72 21
-101 13 -169 -47 -32 -28 -96 -76 -144 -109 -91 -61 -136 -104 -169 -158 l-20
-34 -18 49 c-16 41 -19 77 -19 253 0 201 1 207 30 293 28 84 31 88 55 82 14
-3 102 -44 195 -90z m1358 -186 c11 -7 37 -27 56 -46 19 -18 46 -36 60 -39 45
-9 76 -32 85 -62 5 -19 22 -37 46 -51 43 -24 50 -37 50 -91 0 -53 -8 -70 -35
-70 -32 0 -40 16 -15 33 11 7 17 17 14 20 -14 13 -61 -27 -114 -96 -85 -112
-177 -199 -251 -237 l-66 -33 -36 39 c-54 57 -137 182 -137 206 0 24 94 206
142 277 48 69 109 132 143 147 37 16 32 16 58 3z m-1085 -87 c12 -8 22 -21 22
-30 0 -22 -50 -72 -72 -72 -15 0 -18 9 -18 58 0 32 3 61 6 65 7 7 31 -1 62
-21z m-88 -31 c0 -63 -20 -84 -53 -52 -34 31 -41 26 -17 -14 l22 -35 -28 -10
c-35 -14 -60 7 -51 42 8 31 89 118 110 118 14 0 17 -10 17 -49z m255 8 c42 -7
83 -18 91 -26 25 -25 17 -81 -15 -113 -33 -34 -61 -31 -92 9 -17 22 -20 34
-14 75 5 44 4 48 -9 36 -19 -15 -21 -81 -5 -112 12 -21 1 -42 -16 -30 -6 4
-18 36 -27 72 -9 36 -20 73 -23 83 -9 21 4 22 110 6z m235 -63 c34 -20 66 -36
73 -36 18 0 37 -72 37 -137 0 -81 -11 -92 -41 -46 -29 45 -89 87 -147 104 -23
6 -45 15 -47 20 -3 4 2 24 12 44 17 35 17 38 0 67 l-18 31 35 -6 c20 -3 63
-22 96 -41z m-340 -12 c7 -19 10 -37 8 -39 -9 -9 -76 -12 -89 -4 -11 6 -7 16
21 44 18 19 37 35 41 35 4 0 13 -16 19 -36z m-300 -48 c0 -24 3 -64 6 -90 5
-31 3 -46 -5 -46 -6 0 -11 16 -11 38 -1 42 -12 60 -54 87 l-29 19 39 18 c21
10 42 18 47 18 4 0 7 -20 7 -44z m186 -2 c9 -34 -18 -64 -44 -48 -35 23 -27
74 12 74 19 0 27 -7 32 -26z m624 -14 c92 -46 170 -99 170 -115 0 -15 -34 -42
-89 -70 -38 -19 -141 -36 -141 -23 0 4 7 34 16 66 15 54 15 60 -3 115 -11 31
-18 57 -16 57 2 0 31 -14 63 -30z m-876 -21 c53 -41 53 -90 2 -131 -29 -24
-49 -22 -80 8 -35 36 -34 77 3 115 35 35 40 35 75 8z m155 2 c11 -7 9 -14 -12
-35 -35 -35 -57 -34 -57 3 0 37 35 53 69 32z m210 -6 c2 -3 -3 -22 -13 -42
l-17 -36 -30 28 c-31 31 -37 50 -16 59 13 6 67 -1 76 -9z m216 -25 c77 -13
143 -54 174 -109 13 -23 22 -44 20 -45 -2 -2 -57 -6 -121 -10 -120 -7 -208
-19 -265 -37 -37 -12 -45 -32 -10 -25 12 3 58 13 102 22 54 12 127 18 221 18
155 1 175 -5 189 -62 23 -93 96 -194 171 -238 23 -14 45 -32 48 -41 18 -46
-232 -350 -355 -432 -140 -93 -378 -147 -474 -107 -113 48 -209 194 -331 502
-107 272 -102 323 42 418 46 31 87 56 91 56 5 0 35 -14 68 -31 90 -46 137 -30
206 73 l40 58 62 0 c34 0 89 -5 122 -10z m-380 -64 c0 -58 -12 -66 -51 -33
l-28 24 23 32 c34 47 56 38 56 -23z m113 -9 c3 -13 -53 -57 -72 -57 -8 0 -8
105 1 113 9 9 67 -37 71 -56z m-430 -2 c12 -24 30 -50 41 -56 17 -12 16 -15
-20 -52 -50 -52 -63 -93 -54 -165 l7 -57 -22 20 c-58 52 -75 148 -44 242 17
52 51 113 63 113 4 0 17 -20 29 -45z m1769 -24 c26 -16 95 -55 153 -88 58 -33
247 -143 420 -245 173 -102 397 -234 497 -292 100 -59 186 -113 192 -120 8 -9
5 -23 -10 -52 -12 -21 -25 -43 -29 -48 -5 -5 -164 71 -357 169 -420 214 -1046
537 -1052 541 -8 7 116 164 129 164 5 0 30 -13 57 -29z m425 -140 c27 -51 47
-96 44 -98 -11 -11 -70 33 -77 57 -4 14 -19 61 -33 106 -14 45 -26 85 -26 90
0 13 35 -46 92 -155z m-1019 32 c24 -38 67 -94 96 -126 54 -58 61 -87 21 -87
-63 0 -230 236 -193 273 17 17 36 2 76 -60z m-77 -28 c18 -33 65 -97 104 -142
64 -74 83 -114 62 -127 -13 -8 -89 36 -132 77 -66 62 -134 219 -106 247 20 20
39 6 72 -55z m1227 -407 c207 -105 262 -168 368 -420 51 -120 129 -420 129
-493 l0 -32 -84 -5 c-82 -4 -88 -6 -158 -53 l-72 -48 -93 99 c-144 153 -209
244 -281 394 l-65 135 41 210 c23 115 44 227 48 248 3 20 11 37 16 37 5 0 73
-32 151 -72z m798 -249 l40 -20 -24 -42 c-18 -30 -33 -43 -51 -45 -21 -3 -26
1 -26 18 0 11 7 35 16 51 25 50 8 45 -24 -6 -18 -29 -32 -43 -36 -36 -9 13 40
101 55 101 5 0 28 -9 50 -21z m66 -70 c-8 -19 -22 -43 -31 -54 -14 -18 -15
-19 -16 -2 0 21 16 54 38 80 22 25 25 15 9 -24z m206 -87 c33 -29 16 -92 -25
-92 -21 0 -154 65 -180 87 -16 14 -16 18 -1 47 30 59 29 59 111 14 43 -23 85
-48 95 -56z m245 7 c83 -36 104 -146 45 -237 -68 -105 -231 -124 -278 -32 -19
36 -11 56 43 112 32 33 36 45 40 100 2 35 5 68 7 75 5 16 88 6 143 -18z m-170
-34 c5 -55 -3 -77 -43 -121 -26 -28 -38 -35 -46 -27 -8 8 -3 26 20 66 17 30
31 64 31 75 0 61 33 67 38 7z m-653 -555 c17 -7 25 -16 23 -28 -2 -13 -20 -20
-75 -29 -39 -6 -100 -23 -136 -37 -68 -28 -92 -32 -101 -17 -12 19 8 42 67 81
57 37 68 40 129 40 37 0 79 -5 93 -10z m20 -115 c0 -26 -4 -31 -35 -37 -220
-42 -240 -43 -240 -13 0 35 139 85 225 82 48 -2 50 -3 50 -32z m15 -159 c0
-133 -14 -196 -53 -248 -38 -49 -54 -57 -52 -26 4 52 -10 47 -36 -11 -23 -51
-32 -61 -53 -61 -39 0 -50 32 -51 148 l0 102 -35 0 c-41 0 -75 21 -83 49 -7
30 13 49 58 55 22 3 41 5 41 6 1 0 4 9 7 19 9 37 83 60 220 69 l37 3 0 -105z
m-962 -72 c3 -24 -76 -148 -142 -221 -52 -58 -83 -67 -105 -32 -12 20 -8 27
59 92 39 39 81 89 92 111 11 23 27 49 36 59 21 23 56 18 60 -9z m-1634 -605
c142 -47 273 -74 416 -88 107 -10 275 -20 342 -21 l37 0 -35 -77 c-20 -43 -50
-111 -67 -150 -24 -57 -35 -73 -51 -73 -68 1 -281 22 -359 36 -189 32 -455
141 -563 229 l-44 36 0 103 c0 56 3 105 6 109 3 3 50 -10 103 -30 53 -19 150
-53 215 -74z m1480 -46 c-17 -103 -47 -239 -52 -244 -14 -14 -298 -71 -391
-80 -101 -9 -341 -12 -341 -5 0 3 27 61 59 130 59 124 60 126 93 126 18 0 96
5 173 11 160 12 283 36 370 72 87 37 97 35 89 -10z m-59 -305 c-9 -44 -67
-192 -98 -254 -14 -27 -54 -89 -89 -139 -78 -110 -82 -115 -69 -115 11 0 111
132 156 206 l33 54 7 -115 c11 -178 8 -512 -5 -598 -15 -100 -25 -123 -123
-285 -92 -153 -103 -162 -222 -172 l-80 -7 83 -2 c85 -1 110 6 149 42 33 29
41 12 16 -31 -40 -71 -158 -102 -304 -82 -94 13 -179 67 -179 111 0 25 14 24
78 -6 30 -14 57 -25 60 -25 12 1 -43 40 -55 40 -24 0 -52 60 -108 230 l-58
175 -8 275 c-15 462 -16 435 24 521 19 41 37 86 41 102 3 15 12 27 19 27 6 1
81 3 164 5 223 6 434 32 513 64 14 5 33 10 43 10 16 1 18 -4 12 -31z m-590
-1504 c66 -18 190 -18 251 1 44 13 49 13 58 -2 41 -73 137 -137 285 -189 30
-11 60 -29 69 -42 20 -31 5 -46 -33 -32 -31 12 -45 6 -27 -12 14 -14 16 -48 3
-48 -5 0 -35 16 -67 35 -32 19 -61 35 -66 35 -16 0 -8 -19 10 -24 27 -9 65
-53 57 -65 -11 -20 -31 -12 -100 39 -62 46 -96 61 -94 43 0 -5 23 -25 51 -47
56 -43 53 -56 -17 -56 -67 1 -125 18 -255 79 -69 32 -141 62 -160 65 -46 8
-80 36 -82 66 -1 14 -1 64 0 113 l2 88 33 -17 c17 -10 55 -23 82 -30z"/>
<path d="M4483 7523 c-23 -8 -51 -24 -62 -36 -76 -85 -101 -118 -142 -186 -33
-54 -44 -81 -38 -92 15 -30 130 -129 167 -145 20 -9 64 -17 97 -17 79 -1 133
27 207 105 l56 59 41 -12 c23 -7 44 -9 47 -6 4 3 -7 23 -23 44 -16 21 -41 58
-55 83 -31 53 -68 93 -121 128 -35 23 -48 26 -128 25 -90 -2 -119 11 -54 23
19 3 66 5 103 2 63 -3 73 -7 122 -46 29 -23 55 -40 58 -37 10 10 -71 85 -113
105 -48 23 -103 24 -162 3z m-3 -145 c0 -18 -4 -38 -8 -45 -19 -30 -112 -21
-112 11 0 23 59 66 91 66 26 0 29 -3 29 -32z m270 -114 c0 -28 -77 -133 -124
-169 -32 -24 -45 -27 -107 -27 -87 1 -141 25 -198 87 -29 31 -41 53 -41 74 0
43 12 44 43 6 15 -19 48 -49 74 -66 55 -38 109 -42 171 -10 59 30 83 66 119
181 7 21 63 -47 63 -76z m-206 -28 c-7 -19 -46 -31 -71 -22 -15 6 -15 9 -3 16
8 5 18 6 22 4 4 -3 18 2 30 10 25 18 31 16 22 -8z"/>
<path d="M2570 7085 c0 -2 10 -10 23 -16 20 -11 21 -11 8 4 -13 16 -31 23 -31
12z"/>
<path d="M3748 6809 c-21 -12 -25 -54 -4 -46 10 4 14 -16 19 -91 8 -121 32
-173 101 -219 66 -45 98 -44 127 5 52 87 91 113 191 127 26 3 50 10 53 15 8
13 -25 18 -141 23 -119 5 -155 21 -242 107 -51 52 -62 70 -42 70 6 0 10 5 10
10 0 13 -50 12 -72 -1z m73 -85 c51 -56 139 -113 184 -120 25 -3 48 -10 50
-15 6 -9 -44 -49 -91 -72 -28 -15 -33 -14 -60 2 -42 26 -69 59 -98 117 -25 50
-35 114 -18 114 5 0 19 -12 33 -26z"/>
<path d="M4248 6813 c7 -3 16 -2 19 1 4 3 -2 6 -13 5 -11 0 -14 -3 -6 -6z"/>
<path d="M4007 6390 c-24 -23 -89 -29 -136 -13 -46 16 -51 16 -51 -1 0 -14 45
-40 91 -51 33 -8 94 17 109 45 16 30 9 41 -13 20z"/>
<path d="M2509 6523 l-34 -36 31 21 c36 24 61 52 47 52 -5 0 -25 -16 -44 -37z"/>
<path d="M3345 7964 c-110 -17 -228 -46 -275 -68 -25 -12 -28 -15 -10 -11 14
3 135 8 270 11 230 6 250 6 330 -15 148 -37 260 -102 296 -172 14 -28 44 -40
44 -19 0 20 -54 96 -112 156 -73 76 -141 109 -258 123 -106 14 -171 12 -285
-5z"/>
<path d="M3991 7620 c0 -25 9 -112 19 -195 17 -143 18 -146 19 -70 0 116 -15
285 -28 298 -8 8 -11 -1 -10 -33z"/>
<path d="M3430 7628 c-64 -17 -53 -26 34 -27 85 -1 197 -20 239 -42 12 -6 55
-39 96 -72 74 -61 83 -50 15 18 -92 93 -276 152 -384 123z"/>
<path d="M3135 7551 l-39 -6 29 -14 c17 -7 84 -17 150 -22 352 -26 471 -67
602 -208 42 -45 53 -52 53 -35 0 11 -14 41 -30 66 -71 107 -179 174 -326 202
-85 16 -374 28 -439 17z"/>
<path d="M3775 7248 c-22 -5 -74 -8 -115 -5 -73 4 -74 4 -40 -11 53 -21 143
-18 182 7 36 23 33 24 -27 9z"/>
<path d="M330 6835 c0 -25 5 -45 10 -45 6 0 10 20 10 45 0 25 -4 45 -10 45 -5
0 -10 -20 -10 -45z"/>
<path d="M4390 5650 c-12 -16 -19 -30 -16 -30 2 0 14 14 26 30 12 17 19 30 16
30 -2 0 -14 -13 -26 -30z"/>
<path d="M2460 1765 c7 -9 15 -13 17 -11 7 7 -7 26 -19 26 -6 0 -6 -6 2 -15z"/>
<path d="M2490 1722 c0 -5 7 -15 15 -22 8 -7 15 -8 15 -2 0 5 -7 15 -15 22 -8
7 -15 8 -15 2z"/>
<path d="M3277 681 c-7 -32 -76 -91 -107 -91 -9 0 -25 -7 -36 -15 -19 -14 -19
-14 1 -15 11 0 38 11 60 25 22 13 50 25 63 25 20 0 22 -5 22 -54 0 -30 -5 -67
-10 -83 -16 -42 -316 -334 -371 -361 -46 -22 -94 -29 -103 -14 -3 5 13 30 34
56 22 27 40 52 40 57 0 23 -28 4 -84 -56 -61 -65 -96 -82 -96 -47 0 11 14 38
30 60 17 23 30 47 30 54 0 15 -73 -54 -111 -106 -28 -38 -29 -38 -29 -12 0 15
9 45 21 67 39 77 4 55 -59 -35 -45 -65 -66 -57 -47 18 7 26 6 28 -14 21 -11
-3 -21 -2 -21 3 0 6 41 65 91 133 50 68 114 163 142 211 l50 87 36 -16 c63
-27 92 -35 98 -29 3 3 -7 10 -23 16 -68 26 -92 43 -112 78 l-22 37 0 -39 c0
-48 -57 -158 -143 -277 -115 -159 -127 -180 -127 -216 0 -35 15 -72 34 -85 17
-12 205 -9 227 3 15 7 24 7 35 -1 17 -15 79 -15 114 -2 34 13 241 204 327 301
62 70 72 86 78 130 6 43 -1 190 -10 199 -1 1 -5 -11 -8 -27z"/>
</g>
</svg>
